<mxfile host="65bd71144e">
    <diagram name="Page-1" id="8M1xKWCAQ7MhnffAVUwa">
        <mxGraphModel dx="597" dy="607" grid="1" gridSize="10" guides="1" tooltips="1" connect="1" arrows="1" fold="1" page="1" pageScale="1" pageWidth="850" pageHeight="1100" math="0" shadow="0">
            <root>
                <mxCell id="0"/>
                <mxCell id="1" parent="0"/>
                <mxCell id="5NsUEreVqrrax85c_VYe-10" style="edgeStyle=orthogonalEdgeStyle;rounded=0;orthogonalLoop=1;jettySize=auto;html=1;entryX=0.5;entryY=0;entryDx=0;entryDy=0;" parent="1" source="5NsUEreVqrrax85c_VYe-1" target="5NsUEreVqrrax85c_VYe-2" edge="1">
                    <mxGeometry relative="1" as="geometry"/>
                </mxCell>
                <mxCell id="5NsUEreVqrrax85c_VYe-1" value="&lt;font&gt;Start&lt;/font&gt;" style="ellipse;whiteSpace=wrap;html=1;" parent="1" vertex="1">
                    <mxGeometry x="105" y="80" width="70" height="40" as="geometry"/>
                </mxCell>
                <mxCell id="5NsUEreVqrrax85c_VYe-22" style="edgeStyle=orthogonalEdgeStyle;rounded=0;orthogonalLoop=1;jettySize=auto;html=1;entryX=0.5;entryY=0;entryDx=0;entryDy=0;" parent="1" source="5NsUEreVqrrax85c_VYe-2" target="5NsUEreVqrrax85c_VYe-4" edge="1">
                    <mxGeometry relative="1" as="geometry"/>
                </mxCell>
                <mxCell id="5NsUEreVqrrax85c_VYe-2" value="&lt;div&gt;&lt;font style=&quot;font-size: 10px;&quot;&gt;Wycięcie ze zdjęć fragmentów&amp;nbsp;&lt;/font&gt;&lt;/div&gt;&lt;div&gt;&lt;font style=&quot;font-size: 10px;&quot;&gt;[:, 180:250]&lt;/font&gt;&lt;/div&gt;" style="rounded=0;whiteSpace=wrap;html=1;" parent="1" vertex="1">
                    <mxGeometry x="80" y="160" width="120" height="60" as="geometry"/>
                </mxCell>
                <mxCell id="5NsUEreVqrrax85c_VYe-13" style="edgeStyle=orthogonalEdgeStyle;rounded=0;orthogonalLoop=1;jettySize=auto;html=1;entryX=0.5;entryY=0;entryDx=0;entryDy=0;exitX=0.5;exitY=1;exitDx=0;exitDy=0;" parent="1" source="5NsUEreVqrrax85c_VYe-4" target="5NsUEreVqrrax85c_VYe-5" edge="1">
                    <mxGeometry relative="1" as="geometry"/>
                </mxCell>
                <mxCell id="5NsUEreVqrrax85c_VYe-4" value="&lt;div&gt;&lt;font style=&quot;font-size: 10px;&quot;&gt;Ekstrakcja czerwonego koloru i obliczenie różnicy&lt;/font&gt;&lt;/div&gt;" style="rounded=0;whiteSpace=wrap;html=1;" parent="1" vertex="1">
                    <mxGeometry x="80" y="260" width="120" height="60" as="geometry"/>
                </mxCell>
                <mxCell id="5NsUEreVqrrax85c_VYe-54" style="edgeStyle=orthogonalEdgeStyle;rounded=0;orthogonalLoop=1;jettySize=auto;html=1;entryX=0;entryY=0.5;entryDx=0;entryDy=0;" parent="1" source="5NsUEreVqrrax85c_VYe-5" target="5NsUEreVqrrax85c_VYe-53" edge="1">
                    <mxGeometry relative="1" as="geometry"/>
                </mxCell>
                <mxCell id="5NsUEreVqrrax85c_VYe-5" value="&lt;font style=&quot;font-size: 10px;&quot;&gt;Zapisanie w zmiennej red_sum&lt;/font&gt;&lt;font style=&quot;font-size: 10px;&quot;&gt; wyniku sumowania kolumn &lt;br&gt;&lt;/font&gt;" style="rounded=0;whiteSpace=wrap;html=1;" parent="1" vertex="1">
                    <mxGeometry x="80" y="360" width="120" height="60" as="geometry"/>
                </mxCell>
                <mxCell id="5NsUEreVqrrax85c_VYe-24" style="edgeStyle=orthogonalEdgeStyle;rounded=0;orthogonalLoop=1;jettySize=auto;html=1;entryX=0.5;entryY=0;entryDx=0;entryDy=0;exitX=0.5;exitY=1;exitDx=0;exitDy=0;" parent="1" source="5NsUEreVqrrax85c_VYe-52" target="5NsUEreVqrrax85c_VYe-23" edge="1">
                    <mxGeometry relative="1" as="geometry">
                        <mxPoint x="140" y="590" as="sourcePoint"/>
                    </mxGeometry>
                </mxCell>
                <mxCell id="5NsUEreVqrrax85c_VYe-23" value="Koniec" style="ellipse;whiteSpace=wrap;html=1;" parent="1" vertex="1">
                    <mxGeometry x="345" y="440" width="70" height="40" as="geometry"/>
                </mxCell>
                <mxCell id="5NsUEreVqrrax85c_VYe-27" value="&lt;font style=&quot;font-size: 10px;&quot;&gt;Fałsz&lt;/font&gt;" style="text;html=1;align=center;verticalAlign=middle;resizable=0;points=[];autosize=1;strokeColor=none;fillColor=none;" parent="1" vertex="1">
                    <mxGeometry x="380" y="370" width="50" height="30" as="geometry"/>
                </mxCell>
                <mxCell id="5NsUEreVqrrax85c_VYe-57" style="edgeStyle=orthogonalEdgeStyle;rounded=0;orthogonalLoop=1;jettySize=auto;html=1;entryX=0;entryY=0.5;entryDx=0;entryDy=0;" parent="1" source="5NsUEreVqrrax85c_VYe-52" target="5NsUEreVqrrax85c_VYe-56" edge="1">
                    <mxGeometry relative="1" as="geometry"/>
                </mxCell>
                <mxCell id="5NsUEreVqrrax85c_VYe-52" value="&lt;font style=&quot;font-size: 10px;&quot;&gt;Rozmiar max_indices &amp;gt; 1&lt;/font&gt;" style="rhombus;whiteSpace=wrap;html=1;" parent="1" vertex="1">
                    <mxGeometry x="300" y="280" width="160" height="90" as="geometry"/>
                </mxCell>
                <mxCell id="5NsUEreVqrrax85c_VYe-55" style="edgeStyle=orthogonalEdgeStyle;rounded=0;orthogonalLoop=1;jettySize=auto;html=1;entryX=0.5;entryY=0;entryDx=0;entryDy=0;" parent="1" source="5NsUEreVqrrax85c_VYe-53" target="5NsUEreVqrrax85c_VYe-52" edge="1">
                    <mxGeometry relative="1" as="geometry"/>
                </mxCell>
                <mxCell id="5NsUEreVqrrax85c_VYe-53" value="&lt;font style=&quot;font-size: 10px;&quot;&gt;Zapisanie w zmiennej max_indices&lt;/font&gt;&lt;font style=&quot;font-size: 10px;&quot;&gt; indeksów maksymalnych wartości zmiennej red_sum&lt;br&gt;&lt;/font&gt;" style="rounded=0;whiteSpace=wrap;html=1;" parent="1" vertex="1">
                    <mxGeometry x="320" y="145" width="120" height="90" as="geometry"/>
                </mxCell>
                <mxCell id="5NsUEreVqrrax85c_VYe-59" style="edgeStyle=orthogonalEdgeStyle;rounded=0;orthogonalLoop=1;jettySize=auto;html=1;entryX=0.5;entryY=0;entryDx=0;entryDy=0;" parent="1" source="5NsUEreVqrrax85c_VYe-56" target="5NsUEreVqrrax85c_VYe-23" edge="1">
                    <mxGeometry relative="1" as="geometry">
                        <Array as="points">
                            <mxPoint x="580" y="410"/>
                            <mxPoint x="380" y="410"/>
                        </Array>
                    </mxGeometry>
                </mxCell>
                <mxCell id="5NsUEreVqrrax85c_VYe-56" value="&lt;font style=&quot;font-size: 10px;&quot;&gt;Uśrednienie wartości zmiennej max_indices&lt;br&gt;&lt;/font&gt;" style="rounded=0;whiteSpace=wrap;html=1;" parent="1" vertex="1">
                    <mxGeometry x="520" y="295" width="120" height="60" as="geometry"/>
                </mxCell>
                <mxCell id="5NsUEreVqrrax85c_VYe-58" value="&lt;font style=&quot;font-size: 10px;&quot;&gt;Prawda&lt;/font&gt;" style="text;html=1;align=center;verticalAlign=middle;resizable=0;points=[];autosize=1;strokeColor=none;fillColor=none;" parent="1" vertex="1">
                    <mxGeometry x="455" y="295" width="60" height="30" as="geometry"/>
                </mxCell>
            </root>
        </mxGraphModel>
    </diagram>
</mxfile>